<svg width="198" height="111" viewBox="0 0 198 111" fill="none" xmlns="http://www.w3.org/2000/svg">
<path d="M34.1151 21.2454C36.5222 25.3782 35.0937 30.6629 30.9244 33.049C26.755 35.4352 21.4237 34.0191 19.0166 29.8862C16.6094 25.7534 18.0379 20.4687 22.2073 18.0826C26.3766 15.6965 31.7079 17.1125 34.1151 21.2454Z" fill="white"/>
<path d="M68.9846 81.1134C71.3918 85.2463 69.9632 90.531 65.7939 92.9171C61.6246 95.3032 56.2933 93.8872 53.8861 89.7543C51.4789 85.6214 52.9074 80.3367 57.0768 77.9506C61.2461 75.5645 66.5774 76.9805 68.9846 81.1134Z" fill="white" fill-opacity="0.5"/>
<path d="M9.4435 65.2981C13.6129 62.9122 18.9442 64.3284 21.3512 68.4614C23.7582 72.5944 22.3294 77.879 18.16 80.2649C13.9906 82.6509 8.65932 81.2346 6.25232 77.1017C3.84533 72.9687 5.27406 67.6841 9.4435 65.2981Z" fill="white" fill-opacity="0.7"/>
<path d="M69.8411 30.7354C74.0105 28.3495 79.3418 29.7657 81.7488 33.8987C84.1558 38.0317 82.727 43.3163 78.5576 45.7023C74.3882 48.0882 69.0569 46.672 66.6499 42.539C64.2429 38.406 65.6716 33.1214 69.8411 30.7354Z" fill="white" fill-opacity="0.3"/>
<path d="M55.1661 13.7366C59.8163 14.9717 62.576 19.7098 61.33 24.3194C60.084 28.9291 55.304 31.6646 50.6537 30.4295C46.0034 29.1943 43.2438 24.4562 44.4898 19.8466C45.7358 15.237 50.5158 12.5014 55.1661 13.7366Z" fill="white" fill-opacity="0.2"/>
<path d="M37.3472 80.5706C41.9975 81.8057 44.7572 86.5439 43.5112 91.1535C42.2651 95.7631 37.4852 98.4987 32.8349 97.2635C28.1846 96.0284 25.4249 91.2903 26.671 86.6806C27.917 82.071 32.6969 79.3355 37.3472 80.5706Z" fill="white" fill-opacity="0.6"/>
<path d="M12.9324 36.9771C17.5827 38.2122 20.3424 42.9504 19.0964 47.56C17.8503 52.1696 13.0704 54.9052 8.4201 53.67C3.76981 52.4349 1.01012 47.6968 2.25616 43.0871C3.5022 38.4775 8.28212 35.7419 12.9324 36.9771Z" fill="white" fill-opacity="0.8"/>
<path d="M79.5799 57.3305C84.2302 58.5656 86.9898 63.3038 85.7438 67.9134C84.4978 72.523 79.7178 75.2586 75.0675 74.0234C70.4173 72.7883 67.6576 68.0501 68.9036 63.4405C70.1496 58.8309 74.9296 56.0953 79.5799 57.3305Z" fill="white" fill-opacity="0.4"/>
<path d="M62.7625 44.217C68.7128 54.4331 65.1817 67.4964 54.8754 73.3947C44.5692 79.2929 31.3906 75.7926 25.4403 65.5765C19.49 55.3604 23.0212 42.2971 33.3274 36.3988C43.6337 30.5006 56.8122 34.0009 62.7625 44.217Z" fill="white"/>
<path d="M109.8 92L89.3 42.1H99.5L113.5 80.2L127.6 42.1H137.7L117.3 92H109.8ZM145.877 92V42.1H154.777V92H145.877ZM145.777 35.7V21.5H154.877V35.7H145.777ZM188.635 92.8C184.035 92.8 180.435 91.6 177.835 89.2C175.302 86.7333 174.035 83.2 174.035 78.6V50H164.235V42.1H170.135C171.868 42.1 173.068 41.8333 173.735 41.3C174.402 40.7 174.735 39.4667 174.735 37.6V28.3H182.935V42.1H193.935V50H182.935V76.8C182.935 79.2 183.568 81.0667 184.835 82.4C186.168 83.7333 187.968 84.4 190.235 84.4C191.035 84.4 191.702 84.3667 192.235 84.3C192.835 84.2333 193.402 84.1667 193.935 84.1V92.3C193.268 92.4333 192.468 92.5333 191.535 92.6C190.602 92.7333 189.635 92.8 188.635 92.8Z" fill="#D9D9D9"/>
</svg>
